<svg width="24" height="33" viewBox="0 0 24 33" fill="none" xmlns="http://www.w3.org/2000/svg">
<path d="M23.3444 6.95605L21.2791 30.0921L11.9957 32.6658L2.73787 30.0958L0.674805 6.95605H23.3444Z" fill="#264DE4"/>
<path d="M19.5132 28.6175L21.2781 8.84668H12.0117V30.6972L19.5132 28.6175Z" fill="#2965F1"/>
<path d="M5.40625 17.4307L5.66061 20.2686H12.0115V17.4307H5.40625Z" fill="#EBEBEB"/>
<path d="M12.0099 11.6841H12.0001H4.89355L5.15154 14.5221H12.0099V11.6841Z" fill="#EBEBEB"/>
<path d="M12.0112 27.7528V24.8001L11.9987 24.8034L8.83806 23.95L8.63601 21.6865H7.10016H5.78711L6.18471 26.1426L11.9981 27.7564L12.0112 27.7528Z" fill="#EBEBEB"/>
<path d="M6.01367 0.666016H9.45097V2.10343H7.45109V3.54085H9.45097V4.97826H6.01367V0.666016Z" fill="#E4E6E7"/>
<path d="M10.1387 0.666016H13.576V1.91594H11.5761V2.16593H13.576V5.04076H10.1387V3.72834H12.1386V3.47835H10.1387V0.666016Z" fill="#E4E6E7"/>
<path d="M14.2637 0.666016H17.701V1.91594H15.7011V2.16593H17.701V5.04076H14.2637V3.72834H16.2636V3.47835H14.2637V0.666016Z" fill="#E4E6E7"/>
<path d="M15.4937 20.2662L15.1643 23.9469L11.999 24.8012V27.7538L17.8171 26.1413L17.8597 25.6618L18.5266 18.1903L18.5959 17.4282L19.1082 11.6841H11.999V14.5221H15.998L15.7398 17.4282H11.999V20.2662H15.4937Z" fill="white"/>
</svg>
