<svg width="23" height="33" viewBox="0 0 23 33" fill="none" xmlns="http://www.w3.org/2000/svg">
<path d="M2.1123 0.666016H3.5498V2.09102H4.8748V0.666016H6.3123V4.97851H4.8748V3.54101H3.5623V4.97851H2.1123M8.2123 2.10352H6.94355V0.666016H10.9248V2.10352H9.6498V4.97851H8.2123M11.5561 0.666016H13.0623L13.9873 2.18477L14.9123 0.666016H16.4186V4.97851H14.9811V2.84102L13.9748 4.39101L12.9686 2.84102V4.97851H11.5561M17.1311 0.666016H18.5686V3.55351H20.6061V4.97851H17.1311" fill="#E4E6E7"/>
<path d="M2.0625 30.1036L0 6.95361H22.675L20.6125 30.0911L11.3187 32.6661" fill="#E44D26"/>
<path d="M11.3379 30.6973V8.85352H20.6066L18.8379 28.6035" fill="#F16529"/>
<path d="M4.21289 11.6846H11.3379V14.5221H7.32539L7.58789 17.4283H11.3379V20.2596H4.98789M5.11289 21.6846H7.96289L8.16289 23.9533L11.3379 24.8033V27.7658L5.51289 26.1408" fill="#EBEBEB"/>
<path d="M18.4377 11.6846H11.3252V14.5221H18.1752M17.9189 17.4283H11.3252V20.2658H14.8252L14.4939 23.9533L11.3252 24.8033V27.7533L17.1377 26.1408" fill="white"/>
</svg>
