<svg width="33" height="33" viewBox="0 0 33 33" fill="none" xmlns="http://www.w3.org/2000/svg">
<path d="M32.3447 0.666016H0.344727V32.666H32.3447V0.666016Z" fill="#F7DF1E"/>
<path d="M21.9201 25.7506C22.5649 26.8055 23.4039 27.5809 24.8876 27.5809C26.1341 27.5809 26.9303 26.9567 26.9303 26.0942C26.9303 25.0607 26.1122 24.6946 24.7403 24.0933L23.9882 23.77C21.8175 22.8434 20.3754 21.6826 20.3754 19.2285C20.3754 16.968 22.0944 15.2471 24.7809 15.2471C26.6936 15.2471 28.0686 15.914 29.0594 17.6604L26.7169 19.1674C26.2012 18.2408 25.6448 17.8757 24.7809 17.8757C23.8998 17.8757 23.3414 18.4358 23.3414 19.1674C23.3414 20.0717 23.9003 20.4377 25.191 20.9978L25.943 21.3206C28.499 22.4188 29.9421 23.5384 29.9421 26.0555C29.9421 28.7692 27.8145 30.2559 24.9572 30.2559C22.1635 30.2559 20.3586 28.922 19.4755 27.1736L21.9201 25.7506ZM11.2934 26.0118C11.766 26.8518 12.1959 27.5621 13.2294 27.5621C14.2178 27.5621 14.8413 27.1746 14.8413 25.6681V15.4192H17.8494V25.7088C17.8494 28.8298 16.0232 30.2503 13.3575 30.2503C10.9489 30.2503 9.55409 29.0014 8.84473 27.4972L11.2934 26.0118Z" fill="black"/>
</svg>
