<svg width="24" height="24" viewBox="0 0 24 24" fill="none" xmlns="http://www.w3.org/2000/svg">
<g clip-path="url(#clip0_560_10430)">
<path d="M20.5713 17.966C18.5799 17.9538 16.6275 17.4122 14.9144 16.3968C13.2013 15.3813 11.7891 13.9285 10.8225 12.1874C9.856 10.4462 9.36992 8.47929 9.41413 6.48832C9.45835 4.49736 10.0313 2.55397 11.0742 0.857422C8.32647 1.33979 5.85673 2.82772 4.14605 5.03137C2.43536 7.23502 1.60624 9.99656 1.8202 12.7781C2.03416 15.5596 3.27588 18.1618 5.30347 20.0779C7.33106 21.994 9.99931 23.0867 12.7885 23.1431C14.6967 23.148 16.5738 22.6597 18.2377 21.7256C19.9017 20.7915 21.296 19.4433 22.2856 17.8117C21.7188 17.9054 21.1458 17.9569 20.5713 17.966V17.966Z" stroke="#E4E6E7" stroke-width="1.71429" stroke-linecap="round" stroke-linejoin="round"/>
</g>
<defs>
<clipPath id="clip0_560_10430">
<rect width="24" height="24" fill="white"/>
</clipPath>
</defs>
</svg>
