<svg width="37" height="33" viewBox="0 0 37 33" fill="none" xmlns="http://www.w3.org/2000/svg">
<path d="M18.2837 19.8638C20.0498 19.8638 21.4815 18.4321 21.4815 16.666C21.4815 14.8999 20.0498 13.4682 18.2837 13.4682C16.5176 13.4682 15.0859 14.8999 15.0859 16.666C15.0859 18.4321 16.5176 19.8638 18.2837 19.8638Z" fill="#61DAFB"/>
<path fill-rule="evenodd" clip-rule="evenodd" d="M2.99575 14.6948C2.22388 15.3916 1.90463 16.059 1.90463 16.666C1.90463 17.273 2.22388 17.9405 2.99575 18.6372C3.76754 19.334 4.92812 19.9971 6.42864 20.5701C9.42432 21.7139 13.6155 22.4377 18.2837 22.4377C22.9519 22.4377 27.143 21.7139 30.1387 20.5701C31.6392 19.9971 32.7998 19.334 33.5716 18.6372C34.3435 17.9405 34.6627 17.273 34.6627 16.666C34.6627 16.059 34.3435 15.3916 33.5716 14.6948C32.7998 13.9981 31.6392 13.3349 30.1387 12.762C27.143 11.6182 22.9519 10.8944 18.2837 10.8944C13.6155 10.8944 9.42432 11.6182 6.42864 12.762C4.92812 13.3349 3.76754 13.9981 2.99575 14.6948ZM5.87222 11.3047C9.08688 10.0773 13.4752 9.33445 18.2837 9.33445C23.0921 9.33445 27.4805 10.0773 30.6951 11.3047C32.2998 11.9174 33.6521 12.6659 34.6169 13.5369C35.5816 14.4077 36.2226 15.4638 36.2226 16.666C36.2226 17.8682 35.5816 18.9243 34.6169 19.7952C33.6521 20.6661 32.2998 21.4147 30.6951 22.0274C27.4805 23.2548 23.0921 23.9976 18.2837 23.9976C13.4752 23.9976 9.08688 23.2548 5.87222 22.0274C4.26757 21.4147 2.91529 20.6661 1.95049 19.7952C0.985774 18.9243 0.344727 17.8682 0.344727 16.666C0.344727 15.4638 0.985774 14.4077 1.95049 13.5369C2.91529 12.6659 4.26757 11.9174 5.87222 11.3047Z" fill="#61DAFB"/>
<path fill-rule="evenodd" clip-rule="evenodd" d="M12.3468 2.44067C11.3575 2.12061 10.6198 2.17785 10.0942 2.48136C9.56847 2.78486 9.15007 3.39506 8.93257 4.41191C8.7151 5.42865 8.72106 6.76533 8.97516 8.35128C9.48243 11.5175 10.9512 15.5091 13.2853 19.5518C15.6194 23.5946 18.3418 26.8624 20.8302 28.8848C22.0766 29.8978 23.2312 30.5713 24.2205 30.8914C25.2099 31.2114 25.9475 31.1542 26.4732 30.8507C26.9989 30.5472 27.4173 29.937 27.6348 28.9201C27.8522 27.9034 27.8463 26.5667 27.5922 24.9807C27.0849 21.8145 25.6162 17.823 23.2821 13.7802C20.948 9.73742 18.2256 6.46967 15.7372 4.44724C14.4907 3.43422 13.3361 2.76071 12.3468 2.44067ZM16.721 3.23672C19.3913 5.40699 22.2288 8.83598 24.633 13.0002C27.0372 17.1645 28.5881 21.3363 29.1324 24.734C29.4042 26.43 29.432 27.9754 29.1602 29.2464C28.8883 30.5173 28.2943 31.6005 27.2531 32.2016C26.212 32.8027 24.9769 32.7756 23.7403 32.3755C22.5037 31.9755 21.1793 31.1786 19.8463 30.0953C17.176 27.925 14.3386 24.496 11.9343 20.3318C9.53011 16.1675 7.97925 11.9957 7.43489 8.59806C7.16317 6.90205 7.13531 5.35665 7.40717 4.08563C7.679 2.81473 8.27309 1.73152 9.3142 1.13044C10.3553 0.52935 11.5904 0.556465 12.827 0.956499C14.0636 1.35657 15.3881 2.15339 16.721 3.23672Z" fill="#61DAFB"/>
<path fill-rule="evenodd" clip-rule="evenodd" d="M27.6348 4.41191C27.4173 3.39506 26.9989 2.78486 26.4732 2.48136C25.9475 2.17785 25.2099 2.12061 24.2205 2.44067C23.2312 2.76071 22.0766 3.43422 20.8302 4.44724C18.3418 6.46967 15.6194 9.73742 13.2853 13.7802C10.9512 17.823 9.48243 21.8145 8.97515 24.9807C8.72106 26.5667 8.7151 27.9034 8.93257 28.9201C9.15007 29.937 9.56847 30.5472 10.0942 30.8507C10.6198 31.1542 11.3575 31.2114 12.3468 30.8914C13.3361 30.5713 14.4907 29.8978 15.7372 28.8848C18.2256 26.8624 20.948 23.5946 23.2821 19.5518C25.6162 15.5091 27.0849 11.5175 27.5922 8.35128C27.8463 6.76533 27.8522 5.42864 27.6348 4.41191ZM29.1324 8.59805C28.5881 11.9957 27.0372 16.1675 24.633 20.3318C22.2288 24.496 19.3913 27.925 16.721 30.0953C15.3881 31.1786 14.0636 31.9755 12.827 32.3755C11.5904 32.7756 10.3553 32.8027 9.3142 32.2016C8.27308 31.6005 7.679 30.5173 7.40717 29.2464C7.13531 27.9754 7.16317 26.43 7.43489 24.734C7.97925 21.3363 9.53011 17.1645 11.9343 13.0002C14.3386 8.83598 17.176 5.40699 19.8463 3.23672C21.1793 2.15339 22.5037 1.35657 23.7403 0.956498C24.9769 0.556464 26.212 0.52935 27.2531 1.13044C28.2943 1.73152 28.8883 2.81473 29.1602 4.08563C29.432 5.35664 29.4042 6.90205 29.1324 8.59805Z" fill="#61DAFB"/>
</svg>
