<svg width="44" height="32" viewBox="0 0 44 32" fill="none" xmlns="http://www.w3.org/2000/svg">
<path d="M4.58826 0V14.6322H0V0H4.58826Z" fill="#25282A"/>
<path d="M7.85482 0H12.4009L9.96318 6.0965H6.94531L7.85482 0Z" fill="#25282A"/>
<path d="M32.0573 0V14.6322H27.4898V7.33679L25.2364 14.6322H21.3104L19.057 7.33679V14.6322H14.4688V0H20.0901L23.3145 8.78288L26.4566 0H32.0573Z" fill="#25282A"/>
<path d="M14.0334 31.8548H9.44516L4.58826 24.4973V31.8548H0V17.2227H4.58826L9.44516 24.7038V17.2227H14.0334V31.8548Z" fill="#25282A"/>
<path d="M19.431 31.0281C18.2804 30.381 17.3675 29.4853 16.6921 28.3417C16.0174 27.1974 15.6797 25.9094 15.6797 24.4765C15.6797 23.0435 16.0174 21.7555 16.6921 20.6119C17.3675 19.4683 18.2804 18.5761 19.431 17.9352C20.5815 17.295 21.8459 16.9746 23.223 16.9746C24.6014 16.9746 25.8624 17.2957 27.0053 17.9352C28.1489 18.5761 29.055 19.469 29.7235 20.6119C30.392 21.7549 30.7255 23.0435 30.7255 24.4765C30.7255 25.9094 30.392 27.1974 29.7235 28.3417C29.055 29.4853 28.1455 30.381 26.995 31.0281C25.8444 31.6751 24.5876 31.9997 23.223 31.9997C21.8459 31.9997 20.5822 31.6751 19.431 31.0281ZM25.332 26.8424C25.8279 26.2568 26.0758 25.4681 26.0758 24.4758C26.0758 23.471 25.8286 22.6747 25.332 22.0891C24.8362 21.5028 24.1332 21.21 23.2237 21.21C22.3003 21.21 21.5911 21.5028 21.0953 22.0891C20.5994 22.6747 20.3515 23.4703 20.3515 24.4758C20.3515 25.4681 20.5987 26.2568 21.0953 26.8424C21.5911 27.4287 22.3003 27.7215 23.2237 27.7215C24.1325 27.7215 24.8355 27.4287 25.332 26.8424Z" fill="#25282A"/>
<path d="M43.8727 17.2227V20.8593H39.9874V31.8548H35.3992V20.8593H31.5547V17.2227H43.8727Z" fill="#25282A"/>
</svg>
