<svg width="24" height="25" viewBox="0 0 24 25" fill="none" xmlns="http://www.w3.org/2000/svg">
<path d="M2.57129 21.1718C2.57744 21.5289 2.68137 21.8776 2.87178 22.1798C3.06219 22.482 3.33179 22.7263 3.65129 22.8861C3.97033 23.0663 4.33056 23.1611 4.697 23.1611C5.06345 23.1611 5.42368 23.0663 5.74272 22.8861L20.5713 13.7146C20.8939 13.5592 21.1662 13.3159 21.3567 13.0126C21.5472 12.7093 21.6483 12.3585 21.6483 12.0003C21.6483 11.6422 21.5472 11.2913 21.3567 10.9881C21.1662 10.6848 20.8939 10.4415 20.5713 10.2861L5.74272 1.1832C5.42368 1.00293 5.06345 0.908203 4.697 0.908203C4.33056 0.908203 3.97033 1.00293 3.65129 1.1832C3.33179 1.34296 3.06219 1.58722 2.87178 1.88946C2.68137 2.19169 2.57744 2.54033 2.57129 2.89749V21.1718Z" stroke="#25282A" stroke-width="1.71429" stroke-linecap="round" stroke-linejoin="round"/>
</svg>
